<mxfile host="app.diagrams.net" modified="2023-08-23T19:14:49.691Z" agent="Mozilla/5.0 (X11; Linux x86_64; rv:109.0) Gecko/20100101 Firefox/116.0" etag="yHD05Ck6IsO-cT4WoLeu" version="21.6.8" type="github">
  <diagram name="Page-1" id="SkP1a2dRg37QSFIkyU-X">
    <mxGraphModel dx="1195" dy="1785" grid="1" gridSize="10" guides="1" tooltips="1" connect="1" arrows="1" fold="1" page="1" pageScale="1" pageWidth="850" pageHeight="1100" math="0" shadow="0">
      <root>
        <mxCell id="0" />
        <mxCell id="1" parent="0" />
        <mxCell id="W1ApAz1ECK5iy_ewjs_l-1" value="user" style="rounded=0;whiteSpace=wrap;html=1;" parent="1" vertex="1">
          <mxGeometry x="60" y="70" width="120" height="60" as="geometry" />
        </mxCell>
        <mxCell id="W1ApAz1ECK5iy_ewjs_l-3" value="content" style="rounded=0;whiteSpace=wrap;html=1;" parent="1" vertex="1">
          <mxGeometry x="320" y="300" width="120" height="60" as="geometry" />
        </mxCell>
        <mxCell id="W1ApAz1ECK5iy_ewjs_l-4" value="write" style="rhombus;whiteSpace=wrap;html=1;" parent="1" vertex="1">
          <mxGeometry x="500" y="490" width="80" height="80" as="geometry" />
        </mxCell>
        <mxCell id="W1ApAz1ECK5iy_ewjs_l-10" value="category" style="rounded=0;whiteSpace=wrap;html=1;" parent="1" vertex="1">
          <mxGeometry x="320" y="590" width="120" height="60" as="geometry" />
        </mxCell>
        <mxCell id="W1ApAz1ECK5iy_ewjs_l-11" value="belongs_to" style="rhombus;whiteSpace=wrap;html=1;" parent="1" vertex="1">
          <mxGeometry x="340" y="440" width="80" height="80" as="geometry" />
        </mxCell>
        <mxCell id="W1ApAz1ECK5iy_ewjs_l-12" value="" style="endArrow=none;html=1;rounded=0;entryX=0.5;entryY=1;entryDx=0;entryDy=0;exitX=0.5;exitY=0;exitDx=0;exitDy=0;" parent="1" source="W1ApAz1ECK5iy_ewjs_l-11" target="W1ApAz1ECK5iy_ewjs_l-3" edge="1">
          <mxGeometry width="50" height="50" relative="1" as="geometry">
            <mxPoint x="400" y="450" as="sourcePoint" />
            <mxPoint x="450" y="400" as="targetPoint" />
          </mxGeometry>
        </mxCell>
        <mxCell id="W1ApAz1ECK5iy_ewjs_l-13" value="" style="endArrow=none;html=1;rounded=0;exitX=0.5;exitY=1;exitDx=0;exitDy=0;" parent="1" source="W1ApAz1ECK5iy_ewjs_l-11" target="W1ApAz1ECK5iy_ewjs_l-10" edge="1">
          <mxGeometry width="50" height="50" relative="1" as="geometry">
            <mxPoint x="380" y="530" as="sourcePoint" />
            <mxPoint x="450" y="400" as="targetPoint" />
          </mxGeometry>
        </mxCell>
        <mxCell id="W1ApAz1ECK5iy_ewjs_l-19" value="reviews" style="rounded=0;whiteSpace=wrap;html=1;" parent="1" vertex="1">
          <mxGeometry x="720" y="70" width="120" height="60" as="geometry" />
        </mxCell>
        <mxCell id="W1ApAz1ECK5iy_ewjs_l-20" value="belongs_to" style="rhombus;whiteSpace=wrap;html=1;" parent="1" vertex="1">
          <mxGeometry x="510" y="140" width="80" height="80" as="geometry" />
        </mxCell>
        <mxCell id="WqGWLmwPLTVPIJWzrpHa-1" value="" style="endArrow=none;html=1;rounded=0;entryX=0.175;entryY=0.763;entryDx=0;entryDy=0;entryPerimeter=0;" parent="1" target="W1ApAz1ECK5iy_ewjs_l-20" edge="1">
          <mxGeometry width="50" height="50" relative="1" as="geometry">
            <mxPoint x="440" y="300" as="sourcePoint" />
            <mxPoint x="490" y="250" as="targetPoint" />
          </mxGeometry>
        </mxCell>
        <mxCell id="WqGWLmwPLTVPIJWzrpHa-2" value="&lt;u&gt;id&lt;/u&gt;" style="ellipse;whiteSpace=wrap;html=1;" parent="1" vertex="1">
          <mxGeometry x="20" y="180" width="40" height="30" as="geometry" />
        </mxCell>
        <mxCell id="WqGWLmwPLTVPIJWzrpHa-3" value="" style="endArrow=none;html=1;rounded=0;exitX=1;exitY=0;exitDx=0;exitDy=0;" parent="1" source="WqGWLmwPLTVPIJWzrpHa-2" edge="1">
          <mxGeometry width="50" height="50" relative="1" as="geometry">
            <mxPoint x="30" y="180" as="sourcePoint" />
            <mxPoint x="80" y="130" as="targetPoint" />
          </mxGeometry>
        </mxCell>
        <mxCell id="WqGWLmwPLTVPIJWzrpHa-4" value="name" style="ellipse;whiteSpace=wrap;html=1;" parent="1" vertex="1">
          <mxGeometry x="170" y="180" width="40" height="30" as="geometry" />
        </mxCell>
        <mxCell id="WqGWLmwPLTVPIJWzrpHa-5" value="" style="endArrow=none;html=1;rounded=0;exitX=0.325;exitY=-0.133;exitDx=0;exitDy=0;exitPerimeter=0;" parent="1" source="WqGWLmwPLTVPIJWzrpHa-4" edge="1">
          <mxGeometry width="50" height="50" relative="1" as="geometry">
            <mxPoint x="120" y="180" as="sourcePoint" />
            <mxPoint x="170" y="130" as="targetPoint" />
          </mxGeometry>
        </mxCell>
        <mxCell id="WqGWLmwPLTVPIJWzrpHa-11" value="" style="endArrow=none;html=1;rounded=0;fillColor=#f8cecc;strokeColor=#b85450;" parent="1" target="WqGWLmwPLTVPIJWzrpHa-12" edge="1">
          <mxGeometry width="50" height="50" relative="1" as="geometry">
            <mxPoint x="120" y="30" as="sourcePoint" />
            <mxPoint x="440" y="30" as="targetPoint" />
          </mxGeometry>
        </mxCell>
        <mxCell id="WqGWLmwPLTVPIJWzrpHa-12" value="written" style="rhombus;whiteSpace=wrap;html=1;" parent="1" vertex="1">
          <mxGeometry x="400" y="-10" width="80" height="80" as="geometry" />
        </mxCell>
        <mxCell id="WqGWLmwPLTVPIJWzrpHa-13" value="" style="endArrow=none;html=1;rounded=0;fillColor=#f8cecc;strokeColor=#b85450;" parent="1" edge="1">
          <mxGeometry width="50" height="50" relative="1" as="geometry">
            <mxPoint x="480" y="30" as="sourcePoint" />
            <mxPoint x="780" y="30" as="targetPoint" />
          </mxGeometry>
        </mxCell>
        <mxCell id="WqGWLmwPLTVPIJWzrpHa-14" value="" style="endArrow=none;html=1;rounded=0;" parent="1" source="W1ApAz1ECK5iy_ewjs_l-19" edge="1">
          <mxGeometry width="50" height="50" relative="1" as="geometry">
            <mxPoint x="720" y="80" as="sourcePoint" />
            <mxPoint x="780" y="30" as="targetPoint" />
          </mxGeometry>
        </mxCell>
        <mxCell id="WqGWLmwPLTVPIJWzrpHa-15" value="" style="endArrow=classic;html=1;rounded=0;entryX=0.5;entryY=0;entryDx=0;entryDy=0;" parent="1" target="W1ApAz1ECK5iy_ewjs_l-1" edge="1">
          <mxGeometry width="50" height="50" relative="1" as="geometry">
            <mxPoint x="120" y="30" as="sourcePoint" />
            <mxPoint x="170" y="-20" as="targetPoint" />
          </mxGeometry>
        </mxCell>
        <mxCell id="WqGWLmwPLTVPIJWzrpHa-16" value="&lt;u&gt;id&lt;/u&gt;" style="ellipse;whiteSpace=wrap;html=1;" parent="1" vertex="1">
          <mxGeometry x="730" y="170" width="40" height="30" as="geometry" />
        </mxCell>
        <mxCell id="WqGWLmwPLTVPIJWzrpHa-17" value="" style="endArrow=none;html=1;rounded=0;exitX=0.5;exitY=0;exitDx=0;exitDy=0;" parent="1" source="WqGWLmwPLTVPIJWzrpHa-16" edge="1">
          <mxGeometry width="50" height="50" relative="1" as="geometry">
            <mxPoint x="710" y="180" as="sourcePoint" />
            <mxPoint x="760" y="130" as="targetPoint" />
          </mxGeometry>
        </mxCell>
        <mxCell id="WqGWLmwPLTVPIJWzrpHa-18" value="date" style="ellipse;whiteSpace=wrap;html=1;" parent="1" vertex="1">
          <mxGeometry x="810" y="170" width="40" height="30" as="geometry" />
        </mxCell>
        <mxCell id="WqGWLmwPLTVPIJWzrpHa-19" value="" style="endArrow=none;html=1;rounded=0;exitX=0.5;exitY=0;exitDx=0;exitDy=0;" parent="1" source="WqGWLmwPLTVPIJWzrpHa-18" edge="1">
          <mxGeometry width="50" height="50" relative="1" as="geometry">
            <mxPoint x="829.5" y="160" as="sourcePoint" />
            <mxPoint x="829.5" y="130" as="targetPoint" />
          </mxGeometry>
        </mxCell>
        <mxCell id="WqGWLmwPLTVPIJWzrpHa-31" value="type" style="ellipse;whiteSpace=wrap;html=1;" parent="1" vertex="1">
          <mxGeometry x="430" y="710" width="50" height="30" as="geometry" />
        </mxCell>
        <mxCell id="WqGWLmwPLTVPIJWzrpHa-34" value="content" style="ellipse;whiteSpace=wrap;html=1;" parent="1" vertex="1">
          <mxGeometry x="790" y="-30" width="50" height="30" as="geometry" />
        </mxCell>
        <mxCell id="WqGWLmwPLTVPIJWzrpHa-35" value="" style="endArrow=none;html=1;rounded=0;exitX=0.75;exitY=0;exitDx=0;exitDy=0;" parent="1" source="W1ApAz1ECK5iy_ewjs_l-19" edge="1">
          <mxGeometry width="50" height="50" relative="1" as="geometry">
            <mxPoint x="830" y="40" as="sourcePoint" />
            <mxPoint x="815" as="targetPoint" />
          </mxGeometry>
        </mxCell>
        <mxCell id="WqGWLmwPLTVPIJWzrpHa-36" value="&lt;u&gt;id&lt;/u&gt;" style="ellipse;whiteSpace=wrap;html=1;" parent="1" vertex="1">
          <mxGeometry x="260" y="400" width="40" height="30" as="geometry" />
        </mxCell>
        <mxCell id="WqGWLmwPLTVPIJWzrpHa-37" value="" style="endArrow=none;html=1;rounded=0;" parent="1" edge="1">
          <mxGeometry width="50" height="50" relative="1" as="geometry">
            <mxPoint x="280" y="400" as="sourcePoint" />
            <mxPoint x="320" y="360" as="targetPoint" />
          </mxGeometry>
        </mxCell>
        <mxCell id="WqGWLmwPLTVPIJWzrpHa-38" value="date" style="ellipse;whiteSpace=wrap;html=1;" parent="1" vertex="1">
          <mxGeometry x="340" y="230" width="40" height="30" as="geometry" />
        </mxCell>
        <mxCell id="WqGWLmwPLTVPIJWzrpHa-40" value="&lt;u&gt;id&lt;/u&gt;" style="ellipse;whiteSpace=wrap;html=1;" parent="1" vertex="1">
          <mxGeometry x="270" y="710" width="40" height="30" as="geometry" />
        </mxCell>
        <mxCell id="WqGWLmwPLTVPIJWzrpHa-41" value="" style="endArrow=none;html=1;rounded=0;entryX=0;entryY=1;entryDx=0;entryDy=0;" parent="1" target="W1ApAz1ECK5iy_ewjs_l-10" edge="1">
          <mxGeometry width="50" height="50" relative="1" as="geometry">
            <mxPoint x="290" y="710" as="sourcePoint" />
            <mxPoint x="340" y="660" as="targetPoint" />
          </mxGeometry>
        </mxCell>
        <mxCell id="WqGWLmwPLTVPIJWzrpHa-42" value="" style="endArrow=none;html=1;rounded=0;entryX=0.5;entryY=0;entryDx=0;entryDy=0;exitX=1;exitY=1;exitDx=0;exitDy=0;" parent="1" source="W1ApAz1ECK5iy_ewjs_l-10" target="WqGWLmwPLTVPIJWzrpHa-31" edge="1">
          <mxGeometry width="50" height="50" relative="1" as="geometry">
            <mxPoint x="445" y="650" as="sourcePoint" />
            <mxPoint x="495" y="600" as="targetPoint" />
          </mxGeometry>
        </mxCell>
        <mxCell id="6AoJLv5oCGaS3d9m1TOx-1" value="" style="endArrow=none;html=1;rounded=0;" parent="1" source="W1ApAz1ECK5iy_ewjs_l-3" edge="1">
          <mxGeometry width="50" height="50" relative="1" as="geometry">
            <mxPoint x="380" y="290" as="sourcePoint" />
            <mxPoint x="360" y="260" as="targetPoint" />
          </mxGeometry>
        </mxCell>
        <mxCell id="6AoJLv5oCGaS3d9m1TOx-2" value="" style="endArrow=none;html=1;rounded=0;entryX=0;entryY=0;entryDx=0;entryDy=0;exitX=0.917;exitY=1;exitDx=0;exitDy=0;exitPerimeter=0;" parent="1" source="W1ApAz1ECK5iy_ewjs_l-3" target="W1ApAz1ECK5iy_ewjs_l-4" edge="1">
          <mxGeometry width="50" height="50" relative="1" as="geometry">
            <mxPoint x="430" y="370" as="sourcePoint" />
            <mxPoint x="440" y="410" as="targetPoint" />
          </mxGeometry>
        </mxCell>
        <mxCell id="6AoJLv5oCGaS3d9m1TOx-4" value="business" style="rounded=0;whiteSpace=wrap;html=1;" parent="1" vertex="1">
          <mxGeometry x="640" y="660" width="120" height="60" as="geometry" />
        </mxCell>
        <mxCell id="6AoJLv5oCGaS3d9m1TOx-5" value="" style="endArrow=classic;html=1;rounded=0;entryX=0.333;entryY=-0.033;entryDx=0;entryDy=0;entryPerimeter=0;" parent="1" target="6AoJLv5oCGaS3d9m1TOx-4" edge="1">
          <mxGeometry width="50" height="50" relative="1" as="geometry">
            <mxPoint x="560" y="555" as="sourcePoint" />
            <mxPoint x="610" y="505" as="targetPoint" />
          </mxGeometry>
        </mxCell>
        <mxCell id="6AoJLv5oCGaS3d9m1TOx-6" value="name" style="ellipse;whiteSpace=wrap;html=1;" parent="1" vertex="1">
          <mxGeometry x="700" y="550" width="80" height="40" as="geometry" />
        </mxCell>
        <mxCell id="6AoJLv5oCGaS3d9m1TOx-7" value="" style="endArrow=none;html=1;rounded=0;exitX=0.75;exitY=0;exitDx=0;exitDy=0;entryX=0.425;entryY=1.075;entryDx=0;entryDy=0;entryPerimeter=0;" parent="1" source="6AoJLv5oCGaS3d9m1TOx-4" target="6AoJLv5oCGaS3d9m1TOx-6" edge="1">
          <mxGeometry width="50" height="50" relative="1" as="geometry">
            <mxPoint x="700" y="640" as="sourcePoint" />
            <mxPoint x="750" y="590" as="targetPoint" />
          </mxGeometry>
        </mxCell>
        <mxCell id="6AoJLv5oCGaS3d9m1TOx-8" value="location" style="ellipse;whiteSpace=wrap;html=1;" parent="1" vertex="1">
          <mxGeometry x="530" y="640" width="80" height="40" as="geometry" />
        </mxCell>
        <mxCell id="6AoJLv5oCGaS3d9m1TOx-9" value="" style="endArrow=none;html=1;rounded=0;exitX=0;exitY=0.5;exitDx=0;exitDy=0;" parent="1" source="6AoJLv5oCGaS3d9m1TOx-4" edge="1">
          <mxGeometry width="50" height="50" relative="1" as="geometry">
            <mxPoint x="535" y="730" as="sourcePoint" />
            <mxPoint x="585" y="680" as="targetPoint" />
          </mxGeometry>
        </mxCell>
        <mxCell id="6AoJLv5oCGaS3d9m1TOx-10" value="&lt;u&gt;id&lt;/u&gt;" style="ellipse;whiteSpace=wrap;html=1;" parent="1" vertex="1">
          <mxGeometry x="580" y="750" width="40" height="30" as="geometry" />
        </mxCell>
        <mxCell id="6AoJLv5oCGaS3d9m1TOx-11" value="" style="endArrow=none;html=1;rounded=0;" parent="1" edge="1">
          <mxGeometry width="50" height="50" relative="1" as="geometry">
            <mxPoint x="620" y="760" as="sourcePoint" />
            <mxPoint x="660" y="720" as="targetPoint" />
          </mxGeometry>
        </mxCell>
        <mxCell id="iGZl58GBQ7wj4JVEuGSs-1" value="address" style="ellipse;whiteSpace=wrap;html=1;" vertex="1" parent="1">
          <mxGeometry x="240" y="90" width="60" height="30" as="geometry" />
        </mxCell>
        <mxCell id="iGZl58GBQ7wj4JVEuGSs-2" value="" style="endArrow=none;html=1;rounded=0;exitX=0;exitY=0.5;exitDx=0;exitDy=0;" edge="1" parent="1" source="iGZl58GBQ7wj4JVEuGSs-1">
          <mxGeometry width="50" height="50" relative="1" as="geometry">
            <mxPoint x="193" y="146" as="sourcePoint" />
            <mxPoint x="180" y="100" as="targetPoint" />
          </mxGeometry>
        </mxCell>
        <mxCell id="iGZl58GBQ7wj4JVEuGSs-3" value="name" style="ellipse;whiteSpace=wrap;html=1;" vertex="1" parent="1">
          <mxGeometry x="355" y="710" width="50" height="30" as="geometry" />
        </mxCell>
        <mxCell id="iGZl58GBQ7wj4JVEuGSs-4" value="" style="endArrow=none;html=1;rounded=0;entryX=0.5;entryY=0;entryDx=0;entryDy=0;exitX=1;exitY=1;exitDx=0;exitDy=0;" edge="1" parent="1">
          <mxGeometry width="50" height="50" relative="1" as="geometry">
            <mxPoint x="372.5" y="650" as="sourcePoint" />
            <mxPoint x="387.5" y="710" as="targetPoint" />
          </mxGeometry>
        </mxCell>
        <mxCell id="iGZl58GBQ7wj4JVEuGSs-5" value="title" style="ellipse;whiteSpace=wrap;html=1;" vertex="1" parent="1">
          <mxGeometry x="590" y="70" width="50" height="30" as="geometry" />
        </mxCell>
        <mxCell id="iGZl58GBQ7wj4JVEuGSs-7" value="" style="endArrow=none;html=1;rounded=0;exitX=1;exitY=0.5;exitDx=0;exitDy=0;" edge="1" parent="1" source="iGZl58GBQ7wj4JVEuGSs-5">
          <mxGeometry width="50" height="50" relative="1" as="geometry">
            <mxPoint x="670" y="140" as="sourcePoint" />
            <mxPoint x="720" y="90" as="targetPoint" />
          </mxGeometry>
        </mxCell>
        <mxCell id="iGZl58GBQ7wj4JVEuGSs-8" value="" style="endArrow=classic;html=1;rounded=0;entryX=-0.021;entryY=0.639;entryDx=0;entryDy=0;entryPerimeter=0;exitX=1;exitY=0.5;exitDx=0;exitDy=0;" edge="1" parent="1" source="W1ApAz1ECK5iy_ewjs_l-20" target="W1ApAz1ECK5iy_ewjs_l-19">
          <mxGeometry width="50" height="50" relative="1" as="geometry">
            <mxPoint x="600" y="170" as="sourcePoint" />
            <mxPoint x="650" y="120" as="targetPoint" />
          </mxGeometry>
        </mxCell>
        <mxCell id="iGZl58GBQ7wj4JVEuGSs-9" value="rating" style="ellipse;whiteSpace=wrap;html=1;" vertex="1" parent="1">
          <mxGeometry x="910" y="80" width="60" height="40" as="geometry" />
        </mxCell>
        <mxCell id="iGZl58GBQ7wj4JVEuGSs-10" value="" style="endArrow=none;html=1;rounded=0;entryX=0;entryY=0.5;entryDx=0;entryDy=0;" edge="1" parent="1" target="iGZl58GBQ7wj4JVEuGSs-9">
          <mxGeometry width="50" height="50" relative="1" as="geometry">
            <mxPoint x="840" y="100" as="sourcePoint" />
            <mxPoint x="890" y="50" as="targetPoint" />
          </mxGeometry>
        </mxCell>
      </root>
    </mxGraphModel>
  </diagram>
</mxfile>
